<?xml version="1.0" encoding="UTF-8" standalone="no"?>
<!-- Svg Vector Icons : http://www.onlinewebfonts.com/icon -->

<svg
   version="1.1"
   x="0px"
   y="0px"
   viewBox="0 0 1000 1000"
   enable-background="new 0 0 1000 1000"
   xml:space="preserve"
   id="svg10"
   sodipodi:docname="table.svg"
   inkscape:version="1.1.2 (0a00cf5339, 2022-02-04)"
   xmlns:inkscape="http://www.inkscape.org/namespaces/inkscape"
   xmlns:sodipodi="http://sodipodi.sourceforge.net/DTD/sodipodi-0.dtd"
   xmlns="http://www.w3.org/2000/svg"
   xmlns:svg="http://www.w3.org/2000/svg"><defs
   id="defs14"><filter
     style="color-interpolation-filters:sRGB;"
     inkscape:label="Invert"
     id="filter18"
     x="0"
     y="0"
     width="1"
     height="1"><feColorMatrix
       values="1 0 0 0 0 0 1 0 0 0 0 0 1 0 0 -0.21 -0.72 -0.07 2 0 "
       result="fbSourceGraphic"
       id="feColorMatrix16" /><feColorMatrix
       result="fbSourceGraphicAlpha"
       in="fbSourceGraphic"
       values="0 0 0 -1 0 0 0 0 -1 0 0 0 0 -1 0 0 0 0 1 0"
       id="feColorMatrix60" /><feColorMatrix
       id="feColorMatrix62"
       type="hueRotate"
       values="180"
       result="color1"
       in="fbSourceGraphic" /><feColorMatrix
       id="feColorMatrix64"
       values="1 0 0 0 0 0 1 0 0 0 0 0 1 0 0 -0.21 -0.72 -0.07 2 0 "
       result="fbSourceGraphic" /><feColorMatrix
       result="fbSourceGraphicAlpha"
       in="fbSourceGraphic"
       values="0 0 0 -1 0 0 0 0 -1 0 0 0 0 -1 0 0 0 0 1 0"
       id="feColorMatrix84" /><feColorMatrix
       id="feColorMatrix86"
       values="-1 0 0 0 1 0 -1 0 0 1 0 0 -1 0 1 -0.21 -0.72 -0.07 2 0 "
       result="fbSourceGraphic"
       in="fbSourceGraphic" /><feColorMatrix
       result="fbSourceGraphicAlpha"
       in="fbSourceGraphic"
       values="0 0 0 -1 0 0 0 0 -1 0 0 0 0 -1 0 0 0 0 1 0"
       id="feColorMatrix106" /><feColorMatrix
       id="feColorMatrix108"
       values="-1 0 0 0 1 0 -1 0 0 1 0 0 -1 0 1 -0.21 -0.72 -0.07 2 0 "
       result="fbSourceGraphic"
       in="fbSourceGraphic" /><feColorMatrix
       result="fbSourceGraphicAlpha"
       in="fbSourceGraphic"
       values="0 0 0 -1 0 0 0 0 -1 0 0 0 0 -1 0 0 0 0 1 0"
       id="feColorMatrix128" /><feColorMatrix
       id="feColorMatrix130"
       values="-1 0 0 0 1 0 -1 0 0 1 0 0 -1 0 1 -0.21 -0.72 -0.07 2 0 "
       result="color2"
       in="fbSourceGraphic" /></filter></defs><sodipodi:namedview
   id="namedview12"
   pagecolor="#ffffff"
   bordercolor="#666666"
   borderopacity="1.0"
   inkscape:pageshadow="2"
   inkscape:pageopacity="0.0"
   inkscape:pagecheckerboard="0"
   showgrid="false"
   inkscape:zoom="0.782"
   inkscape:cx="499.36061"
   inkscape:cy="499.36061"
   inkscape:window-width="1872"
   inkscape:window-height="1016"
   inkscape:window-x="0"
   inkscape:window-y="0"
   inkscape:window-maximized="1"
   inkscape:current-layer="svg10" />
<metadata
   id="metadata2"> Svg Vector Icons : http://www.onlinewebfonts.com/icon </metadata>
<g
   id="g8"
   style="filter:url(#filter18)"><g
     transform="matrix(1 0 0 -1 0 1952)"
     id="g6"><path
       d="M990,1141.7v620.7c0,18-14.6,32.7-32.7,32.7H42.7c-18,0-32.7-14.6-32.7-32.7v-620.7c0-18,14.6-32.7,32.7-32.7h914.7C991.7,1109,990,1141.7,990,1141.7L990,1141.7z M271.3,1141.7H42.7v130.7h228.7V1141.7L271.3,1141.7z M271.3,1305H42.7v130.7h228.7V1305z M271.3,1468.3H42.7V1599h228.7V1468.3z M271.3,1631.7H42.7v130.7h228.7V1631.7z M499,1141.7H304v130.7h196L499,1141.7z M499,1305H304v130.7h196L499,1305z M304,1468.3l0,130.7h195l1-130.7H304L304,1468.3z M500,1631.7H304v130.7h196V1631.7z M728.7,1141.7h-195l-2,130.7h197V1141.7L728.7,1141.7z M728.7,1305h-195l-2,130.7h197V1305L728.7,1305z M728.7,1468.3h-196l-1,130.7h197V1468.3L728.7,1468.3z M728.7,1631.7h-196l-1,130.7h197V1631.7L728.7,1631.7z M957.3,1141.7h-196l-1,130.7h197V1141.7L957.3,1141.7z M957.3,1305h-196l-1,130.7h197V1305L957.3,1305z M957.3,1468.3h-197V1599h197V1468.3L957.3,1468.3z M957.3,1631.7h-196l-1,130.7h197V1631.7L957.3,1631.7z M238.7,1403H75.3v-65.3h163.3V1403z M238.7,1239.7H75.3v-65.3h163.3V1239.7z M238.7,1566.3H75.3V1501h163.3V1566.3z M467.3,1729.7H336.7v-65.3h130.7V1729.7z M696,1729.7H565.3v-65.3H696V1729.7z M238.7,1729.7H75.3v-65.3h163.3V1729.7z M924.7,1729.7H794v-65.3h130.7V1729.7z"
       id="path4" /></g></g>
</svg>
